<svg xmlns="http://www.w3.org/2000/svg" xmlns:xlink="http://www.w3.org/1999/xlink" width="2000" zoomAndPan="magnify" viewBox="0 0 1500 1499.999933" height="2000" preserveAspectRatio="xMidYMid meet" version="1.0"><defs><g/><clipPath id="8ce5334464"><path d="M 0.519531 0.160156 L 1196.441406 0.160156 L 1196.441406 450.398438 L 0.519531 450.398438 Z M 0.519531 0.160156 " clip-rule="nonzero"/></clipPath><clipPath id="8df394764d"><rect x="0" width="1197" y="0" height="451"/></clipPath><clipPath id="00d7ac4570"><path d="M 423.058594 125.316406 L 531.085938 125.316406 L 531.085938 233.339844 L 423.058594 233.339844 Z M 423.058594 125.316406 " clip-rule="nonzero"/></clipPath><clipPath id="fd434a65b6"><path d="M 477.070312 125.316406 C 447.242188 125.316406 423.058594 149.5 423.058594 179.328125 C 423.058594 209.160156 447.242188 233.339844 477.070312 233.339844 C 506.902344 233.339844 531.085938 209.160156 531.085938 179.328125 C 531.085938 149.5 506.902344 125.316406 477.070312 125.316406 Z M 477.070312 125.316406 " clip-rule="nonzero"/></clipPath><clipPath id="d6fe31cf45"><path d="M 0.0585938 0.316406 L 108.085938 0.316406 L 108.085938 108.339844 L 0.0585938 108.339844 Z M 0.0585938 0.316406 " clip-rule="nonzero"/></clipPath><clipPath id="1e9d04b017"><path d="M 54.070312 0.316406 C 24.242188 0.316406 0.0585938 24.5 0.0585938 54.328125 C 0.0585938 84.160156 24.242188 108.339844 54.070312 108.339844 C 83.902344 108.339844 108.085938 84.160156 108.085938 54.328125 C 108.085938 24.5 83.902344 0.316406 54.070312 0.316406 Z M 54.070312 0.316406 " clip-rule="nonzero"/></clipPath><clipPath id="2ca8bcdaae"><rect x="0" width="109" y="0" height="109"/></clipPath><clipPath id="97a5c8b1a0"><rect x="0" width="1197" y="0" height="451"/></clipPath></defs><g transform="matrix(1, 0, 0, 1, 149, 524)"><g clip-path="url(#97a5c8b1a0)"><g clip-path="url(#8ce5334464)"><g transform="matrix(1, 0, 0, 1, 0, 0.000000000000113687)"><g clip-path="url(#8df394764d)"><g fill="#daa520" fill-opacity="1"><g transform="translate(1.120936, 337.741499)"><g><path d="M 266.453125 -111.890625 C 266.453125 -90.015625 262.257812 -71.289062 253.875 -55.71875 C 245.488281 -40.144531 234.40625 -27.710938 220.625 -18.421875 C 206.84375 -9.140625 191.710938 -2.925781 175.234375 0.21875 C 158.765625 3.363281 142.21875 3.363281 125.59375 0.21875 C 108.96875 -2.925781 93.765625 -9.140625 79.984375 -18.421875 C 66.203125 -27.710938 55.117188 -40.144531 46.734375 -55.71875 C 38.347656 -71.289062 34.15625 -90.015625 34.15625 -111.890625 L 34.15625 -321.28125 L 98.40625 -321.28125 L 98.40625 -112.328125 C 98.40625 -98.847656 101.925781 -88.0625 108.96875 -79.96875 C 116.007812 -71.882812 124.695312 -66.492188 135.03125 -63.796875 C 145.363281 -61.109375 155.695312 -61.109375 166.03125 -63.796875 C 176.363281 -66.492188 185.050781 -71.882812 192.09375 -79.96875 C 199.132812 -88.0625 202.65625 -98.847656 202.65625 -112.328125 L 202.65625 -321.28125 L 266.453125 -321.28125 Z M 266.453125 -111.890625 "/></g></g></g><g fill="#daa520" fill-opacity="1"><g transform="translate(285.557106, 337.741499)"><g><path d="M 190.515625 4.5 C 162.960938 4.5 138.773438 -0.140625 117.953125 -9.421875 C 97.128906 -18.710938 79.828125 -31.222656 66.046875 -46.953125 C 52.273438 -62.679688 41.941406 -80.429688 35.046875 -100.203125 C 28.160156 -119.972656 24.71875 -140.265625 24.71875 -161.078125 C 24.71875 -181.898438 28.160156 -202.195312 35.046875 -221.96875 C 41.941406 -241.738281 52.273438 -259.488281 66.046875 -275.21875 C 79.828125 -290.945312 97.128906 -303.453125 117.953125 -312.734375 C 138.773438 -322.023438 162.960938 -326.671875 190.515625 -326.671875 C 218.078125 -326.671875 242.265625 -322.023438 263.078125 -312.734375 C 283.898438 -303.453125 301.203125 -290.945312 314.984375 -275.21875 C 328.765625 -259.488281 339.097656 -241.738281 345.984375 -221.96875 C 352.878906 -202.195312 356.328125 -181.898438 356.328125 -161.078125 C 356.328125 -140.265625 352.878906 -119.972656 345.984375 -100.203125 C 339.097656 -80.429688 328.765625 -62.679688 314.984375 -46.953125 C 301.203125 -31.222656 283.898438 -18.710938 263.078125 -9.421875 C 242.265625 -0.140625 218.078125 4.5 190.515625 4.5 Z M 190.515625 -62.015625 C 208.796875 -62.015625 224.523438 -65.609375 237.703125 -72.796875 C 250.878906 -79.984375 261.363281 -89.492188 269.15625 -101.328125 C 276.945312 -113.160156 282.1875 -126.113281 284.875 -140.1875 C 287.570312 -154.269531 287.570312 -168.347656 284.875 -182.421875 C 282.1875 -196.503906 276.945312 -209.460938 269.15625 -221.296875 C 261.363281 -233.128906 250.878906 -242.640625 237.703125 -249.828125 C 224.523438 -257.023438 208.796875 -260.625 190.515625 -260.625 C 172.242188 -260.625 156.515625 -257.023438 143.328125 -249.828125 C 130.148438 -242.640625 119.664062 -233.128906 111.875 -221.296875 C 104.09375 -209.460938 98.851562 -196.503906 96.15625 -182.421875 C 93.457031 -168.347656 93.457031 -154.269531 96.15625 -140.1875 C 98.851562 -126.113281 104.09375 -113.160156 111.875 -101.328125 C 119.664062 -89.492188 130.148438 -79.984375 143.328125 -72.796875 C 156.515625 -65.609375 172.242188 -62.015625 190.515625 -62.015625 Z M 190.515625 -62.015625 "/></g></g></g><g fill="#daa520" fill-opacity="1"><g transform="translate(649.078265, 337.741499)"><g><path d="M 195.90625 0 L 131.203125 -122.671875 L 100.203125 -122.671875 L 100.203125 0 L 35.953125 0 L 35.953125 -321.28125 L 162.65625 -321.28125 C 181.832031 -321.28125 198.082031 -317.3125 211.40625 -309.375 C 224.738281 -301.4375 235.148438 -291.097656 242.640625 -278.359375 C 250.128906 -265.628906 254.769531 -251.847656 256.5625 -237.015625 C 258.363281 -222.191406 257.242188 -207.664062 253.203125 -193.4375 C 249.160156 -179.207031 242.269531 -166.625 232.53125 -155.6875 C 222.800781 -144.757812 209.992188 -137.050781 194.109375 -132.5625 L 268.703125 0 Z M 100.203125 -185.125 L 156.828125 -185.125 C 165.515625 -185.125 172.476562 -187.519531 177.71875 -192.3125 C 182.957031 -197.113281 186.472656 -203.109375 188.265625 -210.296875 C 190.066406 -217.484375 190.066406 -224.671875 188.265625 -231.859375 C 186.472656 -239.046875 182.957031 -245.035156 177.71875 -249.828125 C 172.476562 -254.628906 165.515625 -257.03125 156.828125 -257.03125 L 100.203125 -257.03125 Z M 100.203125 -185.125 "/></g></g></g><g fill="#daa520" fill-opacity="1"><g transform="translate(907.452373, 337.741499)"><g><path d="M 7.1875 0 L 142.4375 -332.96875 L 149.1875 -332.96875 L 284.4375 0 L 212.09375 0 L 199.0625 -34.59375 L 92.5625 -34.59375 L 79.984375 0 Z M 115.9375 -94.8125 L 175.25 -94.8125 L 146.03125 -178.390625 Z M 115.9375 -94.8125 "/></g></g></g></g></g></g><g clip-path="url(#00d7ac4570)"><g clip-path="url(#fd434a65b6)"><g transform="matrix(1, 0, 0, 1, 423, 125)"><g clip-path="url(#2ca8bcdaae)"><g clip-path="url(#d6fe31cf45)"><g clip-path="url(#1e9d04b017)"><path fill="#a93226" d="M 0.0585938 0.316406 L 108.085938 0.316406 L 108.085938 108.339844 L 0.0585938 108.339844 Z M 0.0585938 0.316406 " fill-opacity="1" fill-rule="nonzero"/></g></g></g></g></g></g></g></g></svg>
